<svg xmlns="http://www.w3.org/2000/svg" viewBox="0 0 355 132" fill="white">
    <path d="M2 12.8a7.5 7.5 0 01-.1-5.4A8.4 8.4 0 014.4 4a10 10 0 014-2 13.4 13.4 0 014.8-.3 24 24 0 014.7 1.2 70.7 70.7 0 007 2.1 33 33 0 005.6 1 3.5 3.5 0 001.8-.3A2 2 0 0033 5a1.8 1.8 0 00.3-.9 2 2 0 00-.2-1 2.4 2.4 0 00-.6-.8 4.7 4.7 0 00-2-.7l-2-.4V0A13.2 13.2 0 0131 0a10.9 10.9 0 014.3 1.2 7.8 7.8 0 013 3 6.4 6.4 0 01.6 4.8 6.8 6.8 0 01-2.8 3.8 8.9 8.9 0 01-4 1.4 10.8 10.8 0 01-1.6.1V22l4.2 4.2-4.2 4.1v9.6l1.3-1a17.5 17.5 0 005.3-7.2h1.2a16.7 16.7 0 01-1.9 8.3 17.4 17.4 0 01-6.5 6.8 19.3 19.3 0 01-9 2.6A20.6 20.6 0 015 42.8 19.2 19.2 0 01.3 26.6a18 18 0 015-9.4 17.8 17.8 0 019.5-4.8l.6.8A18.3 18.3 0 009 20.8l13.7-6v19l-11 4.7a13.6 13.6 0 003 2.3 14.5 14.5 0 008.7 1.6 15.7 15.7 0 005.2-1.6V30.2l-4-4.1 4-4.2v-7.7H28c-2.8-.5-5.6-1.3-8.3-2s-5.6-1.4-8.4-2a8.3 8.3 0 00-3.5 0 4.2 4.2 0 00-1.6.7 3.3 3.3 0 00-1 1.3 2.8 2.8 0 000 2 2.7 2.7 0 001.3 1.5l-.6.9A7.3 7.3 0 012 12.8zm6.2 20a14.6 14.6 0 002.4 4.4l4.1-1.8V20.1l-6.5 2.7a16.4 16.4 0 000 10zM55.5 44.1l2-1.3 1.2 1.4-7.8 5.4-6.5-5.5-2.4 1.5-1.1-1.4 4.2-2.7V13a4.8 4.8 0 00-.1-1 2.5 2.5 0 00-.4-.9 3.1 3.1 0 00-1-.9 7.6 7.6 0 00-1.5-.6v-.9l10.2-7.2h1.2v23.3l7.8-7.3L68 23l2.5-2 1 1.4-2.6 2.2v16.3a28.8 28.8 0 01-.4 5.1 13.3 13.3 0 01-1.8 4.8 12.4 12.4 0 01-5.4 4.7 13.7 13.7 0 01-7.5 1V55a7.7 7.7 0 003.7-2 9.8 9.8 0 002.4-4 24 24 0 00.8-7.6v-15l-3.7-3-3.5 3.2v15.5zM72.6 44.2l3-2.4V25.3l15-7.8 6.3 9.6v.3l-13.5 8.4v2.7l7.5 5 6.9-5.3.9 1.5-13 10.5-9.2-7-2.8 2.3zM90 30l-5.4-7.8-1.2.6v11.3zM136.8 5.2a17.4 17.4 0 00-6.7 6.3l16.5-10.1a36.5 36.5 0 006.4 3.8 37.2 37.2 0 004.2 1.6l2-1.7.5.6-7.5 7.8a64.2 64.2 0 01-6.7-3.2l-.9-.5v33.7a16.3 16.3 0 007-2.9 16.5 16.5 0 005.3-6h1.2a16.3 16.3 0 01-1.6 6.4 17 17 0 01-6 6.8 18.3 18.3 0 01-8.7 2.8 21 21 0 01-16.4-6.7 23.7 23.7 0 01-6.2-16.8 25.1 25.1 0 015-14 25.5 25.5 0 0112-8.8zM132 32.5v-20l-3.3 2a26.1 26.1 0 00-1.7 7.5 28.8 28.8 0 00.5 8.5 20.8 20.8 0 001.1 3.5zm-.9 5.7a14.8 14.8 0 005.9 4.3 15 15 0 006 1.1V8.7c-.9-.4-1.6-1-2.4-1.5l-.5.3V31l-10.8 4.6a16.4 16.4 0 001.8 2.7zM176.1 44.5L178 43l1 1.2-7.9 5.4-6.6-5.7-2.4 1.5-.9-1.2 4.2-2.7V13a4.1 4.1 0 000-1 2.3 2.3 0 00-.4-.8 3.2 3.2 0 00-1.1-1 7.6 7.6 0 00-1.5-.5v-.9l10.2-7.2h1.2V42zM209.1 43.9l-8.7 6-4.8-4.8-6.6 4.8a10.4 10.4 0 01-6.7-3.6 7 7 0 01-.7-8.4 11.6 11.6 0 012.4-2.7 21.2 21.2 0 014-2.7c-.2-.2-.6-.3-.9-.4a8.6 8.6 0 01-3.6-3 5.1 5.1 0 01-.8-2.4 4.6 4.6 0 01.4-2.2 5.5 5.5 0 011.4-1.9 10.4 10.4 0 012-1.3l7-3.6 9.2 6 2.6-2 1 1.3-3.2 2.6v15.9l3 3 2.7-1.8zM195.3 27l-7.8-4.8a5.9 5.9 0 00-1.3.7 4.6 4.6 0 00-1.2 1.4 3.5 3.5 0 00-.5 1.8 4 4 0 001 2.3 8.4 8.4 0 003 2.2A26 26 0 00192 32l3.3 1zm-3.7 6.5l-2.4-.7a7.4 7.4 0 00-1 2.6 9 9 0 001 5.6 7.5 7.5 0 001.6 2.1 5 5 0 002.4 1.2 4.2 4.2 0 002-.1v-9.5a176 176 0 00-3.6-1.2zM232.6 24.3a14 14 0 01-1.8 3 17.4 17.4 0 01-2 2l5.5 4v9.4l-12.4 7.5a6 6 0 00-2.9-2.6 4.7 4.7 0 00-2-.3 3.3 3.3 0 00-1.7.6 2.3 2.3 0 00-.9 1 2 2 0 000 1.4 1.7 1.7 0 00.8.9l-.6 1.6a6.2 6.2 0 01-3.4-3.3 7 7 0 01-.2-4.7 14.8 14.8 0 014-5.8l1.6-1.5-4.7-3.7V25l13-7.5a6.6 6.6 0 002.5 2.3 4.6 4.6 0 002 .4 3.4 3.4 0 002-.6 3 3 0 001.2-2h1.7a21.1 21.1 0 01-1.7 6.7zm-12.2 12.2l-4 3.7c-.7.6-1.3 1.2-1.9 2a7 7 0 013.8-1.5 7.8 7.8 0 014 .7 8.3 8.3 0 013.9 4v-8.1l-3.5-2.8zm6.8-8.1a17.3 17.3 0 002.2-2.2l.5-.7a7.6 7.6 0 01-2.2.6 7.4 7.4 0 01-7.7-4.6v8.2l2.6 2.7zM260 24.3a14 14 0 01-1.8 3 16.6 16.6 0 01-2 2l5.5 4v9.4l-12.4 7.5a5.9 5.9 0 00-2.9-2.6 4.6 4.6 0 00-1.9-.3 3.3 3.3 0 00-1.8.6 2.5 2.5 0 00-.8 1 2 2 0 000 1.4 1.8 1.8 0 00.7 1l-.6 1.5a6.1 6.1 0 01-3.4-3.3 6.9 6.9 0 01-.2-4.7 14.7 14.7 0 014-5.8l1.6-1.5-4.8-3.7V25l13-7.5a6.5 6.5 0 002.6 2.3 4.6 4.6 0 002 .4 3.3 3.3 0 002-.6 3 3 0 001-2h1.9a21.4 21.4 0 01-1.7 6.7zm-12.2 12.2l-4.1 3.7-1.8 2a7 7 0 013.7-1.5 7.8 7.8 0 014 .7 8.3 8.3 0 014 4v-8.1l-3.5-2.8zm6.7-8.1a17.3 17.3 0 002.2-2.2l.6-.7a7.3 7.3 0 01-10-4v8.2l2.6 2.7zM283.9 43.6l-9 6.3-6-5.4-2.1 1.5-1-1.2 4-2.7V25.6l-2.2-2.7-2.4 1.5-.8-1.2 8.4-5.7 4.8 5.7V42l2 2 2.8-1.7zM273.7 3.7l5.4 6.1-6 5.3-5.4-6.1zM297.5 41.9a8.2 8.2 0 004 1l3.6-2.5.8 1-9.2 8.2h-1l-9.4-6.5V24.4l13-7.2 6.6 5.3-6 4.5-5.5-4.6v16.3a8.3 8.3 0 003 3.2zM336.9 43.9l-8.7 6-4.8-4.8-6.6 4.8a10.4 10.4 0 01-6.7-3.6 7 7 0 01-.7-8.4 11.4 11.4 0 012.3-2.6 21 21 0 014.2-2.8l-1-.4a8.6 8.6 0 01-3.6-3 5.1 5.1 0 01-.8-2.4 4.6 4.6 0 01.4-2.2 5.7 5.7 0 011.4-1.8 10.5 10.5 0 012-1.4l7-3.6 9.2 6 2.6-2 1 1.4-3.2 2.6v15.8l3 3 2.7-1.8zM323.1 27l-7.8-4.8a5.8 5.8 0 00-1.3.7 4.6 4.6 0 00-1.2 1.4 3.4 3.4 0 00-.5 1.8 4 4 0 001 2.3 8.4 8.4 0 003 2.2 25.3 25.3 0 003.4 1.3l3.4 1zm-3.7 6.5L317 33a7.4 7.4 0 00-1 2.6 9 9 0 001 5.6 7.5 7.5 0 001.6 2.1 5 5 0 002.4 1.2 4.2 4.2 0 002-.1v-9.5zM352.6 44.5l1.8-1.5.9 1.2-7.8 5.4-6.6-5.7-2.4 1.5-1-1.2 4.3-2.7V13a4.8 4.8 0 00-.1-1 2.3 2.3 0 00-.4-.8 3.1 3.1 0 00-1-1 7.8 7.8 0 00-1.5-.5v-.9L349 1.5h1.2v40.6zM70.4 80.4a17.4 17.4 0 00-6.8 6.3l16.6-10.1a37.1 37.1 0 006.4 3.7 38 38 0 004.2 1.6l2-1.6.5.6-7.5 7.8a64.2 64.2 0 01-6.7-3.2l-1-.5v33.7a16.3 16.3 0 007.2-2.9 16.5 16.5 0 005.2-6h1.2a16.5 16.5 0 01-1.7 6.4 17 17 0 01-6 6.8 18.3 18.3 0 01-8.7 2.9A21 21 0 0159 119a23.7 23.7 0 01-6.2-16.7 25.1 25.1 0 015-14.1 25.5 25.5 0 0112.1-8.8zm-4.9 27.3v-20l-3.4 2a26 26 0 00-1.6 7.5 28.8 28.8 0 00.5 8.5 20.8 20.8 0 001 3.4zm-1 5.7a14.8 14.8 0 006 4.3 15 15 0 005.9 1V84L74 82.4l-.5.3v23.4l-10.8 4.5a16.4 16.4 0 001.8 2.8zM110 119.3l2-1.4 1.1 1.4-7.8 5.5-6.4-5.5-2.4 1.5-1-1.5 4.1-2.7V88.1a4.3 4.3 0 000-1 2.3 2.3 0 00-.4-.8 3.2 3.2 0 00-1.1-.9 8.3 8.3 0 00-1.5-.6V84l10.2-7.2h1.2V100l7.8-7.3 6.6 5.6 2.5-2 1.1 1.3-2.7 2.2V116a28.8 28.8 0 01-.3 5 13.5 13.5 0 01-1.8 4.9 12.5 12.5 0 01-5.4 4.7 13.6 13.6 0 01-7.5 1V130a7.6 7.6 0 003.7-2 9.8 9.8 0 002.4-4 24 24 0 00.8-7.6v-15l-3.7-3-3.5 3.3v15.4zM148.4 118.3L139 125l-6.9-5.5-2 1.6-1-1.2 4-2.8v-16.5l-2.2-2.7-2.4 1.5-.9-1.2 8.4-5.7 4.6 5 4.4-5h.6a3.4 3.4 0 002.7 1.5 3.3 3.3 0 003-1.5h1.8a25.6 25.6 0 01-.6 3.4 10 10 0 01-1.2 2.8 5.5 5.5 0 01-2.3 2 5.1 5.1 0 01-2.3.5 6.7 6.7 0 01-2.3-.6 9.8 9.8 0 01-3.1-2v18.5l2.5 2 3.4-2.3zM152.6 119.1l3.2-2.6v-16l14.1-8.2 9 7v17l-13.8 8.5-8.8-6.4-2.6 2.1zm18.5.9v-18L164 97v18zM216 119.3l-9.2 6.4-6.3-5.7 2-2.2v-15.4l-4.4-3.9-2.7 2.1v17.2l2.7 2.5-6 5.4-7.2-5.7 2.4-2.2v-16.6l-2.4-2.7-2.4 1.5-1-1.2 8.8-6 4.8 5.4 6.9-5.4 7 6 2.7-2 1.1 1.3-3 2.5v16.3l2.7 2.4 2.5-1.8zM236.4 118.7l-9 6.3-6-5.4-2.1 1.6-.9-1.2 3.9-2.8v-16.5l-2.1-2.7-2.4 1.5-1-1.2 8.5-5.7 4.8 5.7v19l2.1 2 2.7-1.8zM226.3 79l5.3 6.1-6 5.3-5.3-6.1zM250 117a8.4 8.4 0 004 1.1l3.6-2.6.8 1.1-9.2 8.1h-.9l-9.4-6.4V99.6l13-7.2 6.5 5.3-5.9 4.5-5.6-4.6v16.2a8.4 8.4 0 003.1 3.2zM274.4 119.6l1.8-1.5 1 1.2-7.9 5.5-6.6-5.8-2.4 1.5-.9-1.2 4.2-2.7V88.1a4.3 4.3 0 000-1 2.3 2.3 0 00-.4-.8 3.2 3.2 0 00-1.1-.9 8.3 8.3 0 00-1.5-.6V84l10.2-7.2h1.2v40.5z"/><path d="M276.9 119.3l3-2.4v-16.5l15-7.8 6.3 9.6v.3l-13.5 8.4v2.7l7.5 5.1 6.9-5.4.9 1.5-13 10.5-9.2-6.9-2.8 2.3zm17.4-14l-5.5-7.9-1.2.7v11.3z"/>
</svg>