<svg class="logo-letter" viewBox="0 0 1024 1024">
  <path d="M468 206c-40 21-75 54-99 93l243-148a534 534 0 0094 55 534 534 0 0061 24l29-25 8 9-109 114a917 917 0 01-99-46l-14-8v494a238 238 0 00104-41 244 244 0 0077-90h18a243 243 0 01-24 95 251 251 0 01-89 99c-38 25-82 39-127 42-90 6-180-32-242-98s-93-157-90-246c2-75 28-148 73-207a373 373 0 01177-129zm-71 401V313l-50 30a422 422 0 00-17 235 304 304 0 0016 51zm-14 84a217 217 0 0086 64 221 221 0 0087 15V258l-34-22-7 5v343l-159 67a237 237 0 0027 40z"/>
</svg>