<svg viewBox="0 0 475 52"><path d="M16.6 3.7a16.3 16.3 0 00-6.4 6L25.7.1a34.7 34.7 0 006 3.5 35.1 35.1 0 004 1.5l1.8-1.6.5.6-7 7.3a60 60 0 01-6.3-3L24 8v31.5a15.2 15.2 0 006.6-2.6 15.6 15.6 0 004.9-5.7h1.1a15.7 15.7 0 01-1.5 6 16 16 0 01-5.7 6.3 17.2 17.2 0 01-8.1 2.7A19.6 19.6 0 015.8 40 22.2 22.2 0 010 24.2a23.5 23.5 0 014.7-13.1A23.8 23.8 0 0116 2.9zM12 29.3V10.5l-3.2 2a24.2 24.2 0 00-1.5 7 27.2 27.2 0 00.5 8 19 19 0 001 3.2zm-.9 5.3a13.8 13.8 0 005.5 4 14 14 0 005.6 1V7L20 5.6l-.5.3v21.9l-10 4.3a15.3 15.3 0 001.6 2.5zM53.4 40.5L55 39l.8 1.1-7.3 5-6.2-5.3-2.2 1.4-.8-1.1 3.9-2.5V11a4.2 4.2 0 000-.9 2.1 2.1 0 00-.4-.8 3 3 0 00-1-.8 7.5 7.5 0 00-1.4-.6V7L50 .3h1.1v38zM84.2 40l-8.1 5.5-4.5-4.5-6.2 4.5a9.8 9.8 0 01-6.3-3.4 6.5 6.5 0 01-.6-7.8 10.8 10.8 0 012.2-2.5 20 20 0 013.8-2.6l-.8-.4a8 8 0 01-3.4-2.8 4.8 4.8 0 01-.8-2.2 4.5 4.5 0 01.4-2 5.3 5.3 0 011.3-1.8 10 10 0 012-1.2l6.4-3.4 8.7 5.6 2.3-2 1 1.4-3 2.4v14.9l2.8 2.8 2.6-1.7zM71.3 24.1L64 19.7a5.3 5.3 0 00-1.2.7 4.6 4.6 0 00-1.2 1.3 3.4 3.4 0 00-.4 1.6 3.7 3.7 0 00.9 2.2 8 8 0 002.8 2 25.2 25.2 0 003.2 1.3l3.2.8zm-3.5 6.1l-2.2-.7a6.7 6.7 0 00-1 2.5 8.5 8.5 0 001 5.2 7 7 0 001.5 2 4.7 4.7 0 002.3 1.1 4 4 0 002-.1v-9zM106.2 21.6a12.9 12.9 0 01-1.7 2.8 14 14 0 01-1.8 1.8l5 3.7v8.9l-11.6 7a5.5 5.5 0 00-2.6-2.4 4.4 4.4 0 00-1.8-.3 3.1 3.1 0 00-1.8.5 2.2 2.2 0 00-.7 1 1.8 1.8 0 000 1.3 1.6 1.6 0 00.7.8l-.6 1.6a5.8 5.8 0 01-3.2-3.1 6.5 6.5 0 01-.1-4.4 13.8 13.8 0 013.8-5.5l1.4-1.3-4.4-3.5v-8.2l12.1-7a6 6 0 002.4 2 4.3 4.3 0 002 .5 3.1 3.1 0 001.8-.6 2.7 2.7 0 001-1.8h1.7a20.2 20.2 0 01-1.6 6.2zM94.8 33q-2 1.7-3.8 3.5a23.4 23.4 0 00-1.7 1.8 6.6 6.6 0 013.5-1.4 7.2 7.2 0 013.8.8 7.8 7.8 0 013.6 3.7v-7.6L97 31.1zm6.3-7.6a15.2 15.2 0 002-2q.4-.3.6-.7a7 7 0 01-2 .6 7 7 0 01-3.7-.5 7 7 0 01-3.6-3.8v7.6l2.4 2.5zM131.8 21.6a13.7 13.7 0 01-1.7 2.8 14.6 14.6 0 01-1.7 1.8l5 3.7v8.9l-11.6 7a5.5 5.5 0 00-2.7-2.4 4.4 4.4 0 00-1.8-.3 3.1 3.1 0 00-1.7.5 2.3 2.3 0 00-.8 1 1.8 1.8 0 000 1.3 1.6 1.6 0 00.7.8l-.5 1.6a5.8 5.8 0 01-3.2-3 6.4 6.4 0 01-.1-4.5 13.9 13.9 0 013.8-5.5l1.4-1.3-4.4-3.5v-8.2l12-7a6 6 0 002.5 2 4.3 4.3 0 002 .5 3 3 0 001.8-.6 2.7 2.7 0 001-1.9h1.6a20.2 20.2 0 01-1.6 6.3zM120.5 33l-3.9 3.5a21.6 21.6 0 00-1.7 1.8 6.5 6.5 0 013.5-1.4 7.3 7.3 0 013.8.8 7.8 7.8 0 013.6 3.7v-7.6l-3.2-2.6zm6.2-7.6a16.5 16.5 0 002.1-2 7.4 7.4 0 00.5-.7 6.7 6.7 0 01-5.7.1A7 7 0 01120 19v7.6l2.4 2.5zM154.2 39.6l-8.4 6-5.7-5.1-2 1.4-.8-1.1 3.7-2.6V22.8l-2-2.6-2.3 1.4-.8-1 7.9-5.4 4.5 5.3v17.7l2 2 2.5-1.7zm-9.5-37.3l5 5.7-5.6 5-5-5.7zM167 38a7.8 7.8 0 003.7 1l3.3-2.4.8 1-8.6 7.6h-.8l-8.9-6V21.7l12.1-6.8 6.2 5-5.5 4.3-5.3-4.4V35a7.8 7.8 0 003 3zM203.9 40l-8.2 5.5-4.5-4.5-6.2 4.5a9.8 9.8 0 01-6.3-3.3 6.9 6.9 0 01-1.6-4.7 6.8 6.8 0 011-3.2 11 11 0 012.2-2.5 19.7 19.7 0 013.8-2.6c-.3 0-.6-.2-.8-.3a8 8 0 01-3.5-2.8 4.7 4.7 0 01-.7-2.2 4.2 4.2 0 01.4-2.1 5.3 5.3 0 011.3-1.7 9.7 9.7 0 012-1.3l6.4-3.3L198 21l2.4-2 1 1.4-3 2.4v14.9l2.7 2.8 2.6-1.7zm-13-15.8l-7.3-4.5a5.3 5.3 0 00-1.2.7 4.6 4.6 0 00-1.1 1.3 3.4 3.4 0 00-.5 1.6 3.6 3.6 0 00.9 2.2 8 8 0 002.8 2 24.7 24.7 0 003.3 1.3l3.1.8zm-3.4 6.1l-2.3-.7a6.8 6.8 0 00-1 2.5 8.4 8.4 0 001 5.2 7 7 0 001.5 2 4.8 4.8 0 002.3 1.1 4 4 0 002-.1v-9zM218.5 40.5l1.7-1.4.9 1.1-7.3 5-6.2-5.3-2.3 1.4-.8-1.1 4-2.5V11a4.2 4.2 0 00-.2-.9 2.1 2.1 0 00-.3-.8 3 3 0 00-1-.8 7.5 7.5 0 00-1.4-.6V7l9.6-6.7h1v38zM257.2 3.7a16.3 16.3 0 00-6.4 6L266.3.1a35 35 0 006 3.5 35.1 35.1 0 004 1.5l1.8-1.6.5.6-7 7.3a60 60 0 01-6.3-3l-.9-.5v31.5a15.2 15.2 0 006.7-2.6 15.5 15.5 0 004.9-5.7h1.1a15.5 15.5 0 01-1.5 6 16 16 0 01-5.7 6.3 17.2 17.2 0 01-8.1 2.7 19.6 19.6 0 01-15.4-6.2 22.2 22.2 0 01-5.8-15.7 23.5 23.5 0 014.7-13.2 23.8 23.8 0 0111.3-8.2zm-4.6 25.6V10.5l-3.2 2a24.5 24.5 0 00-1.5 7 26.8 26.8 0 00.5 8 19 19 0 001 3.2zm-.9 5.3a13.8 13.8 0 005.5 4 14 14 0 005.6 1V7l-2.2-1.4-.5.3v21.9L250 32.1a15.3 15.3 0 001.7 2.5zM294.3 40.1l1.8-1.2 1 1.3-7.2 5-6-5-2.3 1.3-1-1.3 4-2.5V11a4.2 4.2 0 00-.1-.9 2.3 2.3 0 00-.4-.8 3.2 3.2 0 00-1-.8 7.2 7.2 0 00-1.4-.6V7l9.6-6.7h1.1V22l7.3-6.8 6.2 5.2 2.3-2 1 1.3-2.5 2v15.4a27.1 27.1 0 01-.3 4.8 12.4 12.4 0 01-1.7 4.4 11.6 11.6 0 01-5 4.4 12.7 12.7 0 01-7 1v-1.4a7.2 7.2 0 003.4-1.8 9.2 9.2 0 002.2-3.7 22.5 22.5 0 00.8-7.1v-14l-3.5-3-3.2 3v14.5zM330.1 39.2l-8.7 6.3-6.4-5-2 1.4-.8-1.1 3.6-2.6V22.8l-2-2.6-2.2 1.4-.9-1 7.9-5.4 4.3 4.6 4.1-4.6h.6a3.1 3.1 0 004.1 1 3.1 3.1 0 001.2-1h1.8a22.5 22.5 0 01-.7 3.2 9.2 9.2 0 01-1 2.6 5 5 0 01-2.2 1.9 4.7 4.7 0 01-2.2.4 6.3 6.3 0 01-2.2-.5 9 9 0 01-2.8-1.9v17.3l2.3 1.8L329 38zM334.1 40l3-2.4V22.5l13.2-7.6 8.5 6.5v16l-13 7.8-8.2-6-2.4 2zm17.4.8v-17l-6.8-4.4v16.9zM393.6 40.2l-8.8 5.9-5.9-5.3 2-2V24.3l-4.2-3.6-2.5 2v16l2.5 2.3-5.6 5-6.8-5.3 2.3-2V23.2l-2.3-2.5-2.2 1.4-.9-1.1 8.2-5.6 4.5 5 6.4-5L387 21l2.5-2 1 1.2-2.9 2.3V38l2.6 2.3 2.2-1.7zM412.6 39.6l-8.5 6-5.6-5.1-2 1.4-.8-1.1 3.6-2.6V22.8l-2-2.6-2.2 1.4-.9-1 7.9-5.4 4.5 5.3v17.7l2 2 2.5-1.7zM403 2.3l5 5.7-5.6 5-5-5.7zM425.3 38a7.8 7.8 0 003.7 1l3.4-2.4.7 1-8.6 7.6h-.8l-8.9-6V21.7l12.2-6.8 6.2 5-5.5 4.3-5.3-4.4V35a7.8 7.8 0 003 3zM448.2 40.5l1.7-1.4.8 1.1-7.3 5-6.2-5.3-2.2 1.4-.8-1.1 3.9-2.5V11a4.2 4.2 0 000-.9 2.1 2.1 0 00-.4-.8 3.1 3.1 0 00-1-.8 7.3 7.3 0 00-1.4-.6V7l9.5-6.7h1.1v38z"/><path d="M450.5 40.2l2.7-2.3V22.5l14.1-7.3 5.9 9v.3l-12.7 7.8V35l7 4.7 6.5-5 .8 1.4-12 9.8-8.7-6.4-2.6 2zM466.7 27l-5-7.3-1.1.6V31z"/></svg>