<svg viewBox="0 0 38 47"><path d="M16.56,4a16.3,16.3,0,0,0-6.31,5.91L25.74.43a33.44,33.44,0,0,0,6,3.52,33.75,33.75,0,0,0,3.92,1.51l1.85-1.54.48.57-7,7.28a58.13,58.13,0,0,1-6.28-3l-.88-.49V39.82a15.23,15.23,0,0,0,6.62-2.64,15.52,15.52,0,0,0,4.92-5.72h1.12a15.52,15.52,0,0,1-1.55,6,16,16,0,0,1-5.67,6.36,17.23,17.23,0,0,1-8.11,2.67A19.64,19.64,0,0,1,5.8,40.25,22.16,22.16,0,0,1,0,24.54,23.47,23.47,0,0,1,4.68,11.35,23.8,23.8,0,0,1,16,3.14ZM12,29.55V10.8L8.84,12.72a24.57,24.57,0,0,0-1.54,7,26.86,26.86,0,0,0,.47,8,19.9,19.9,0,0,0,1,3.21Zm-.88,5.34A13.71,13.71,0,0,0,22.17,40V7.3c-.73-.45-1.45-.91-2.16-1.4l-.45.28v21.9L9.44,32.34A14.73,14.73,0,0,0,11.11,34.89Z"/></svg>