<svg viewBox="0 0 310 170" fill="#b3b3b3"><circle class="cls-1" cx="12.47" cy="12.22" r="6.72"/><circle class="cls-1" cx="40.7" cy="12.22" r="6.72"/><circle class="cls-1" cx="68.93" cy="12.22" r="6.72"/><circle class="cls-1" cx="97.17" cy="12.22" r="6.72"/><circle class="cls-1" cx="125.4" cy="12.22" r="6.72"/><circle class="cls-1" cx="153.63" cy="12.22" r="6.72"/><circle class="cls-1" cx="181.86" cy="12.22" r="6.72"/><circle class="cls-1" cx="210.09" cy="12.22" r="6.72"/><circle class="cls-1" cx="25.91" cy="45.14" r="6.72"/><circle class="cls-1" cx="54.14" cy="45.14" r="6.72"/><circle class="cls-1" cx="82.37" cy="45.14" r="6.72"/><circle class="cls-1" cx="110.6" cy="45.14" r="6.72"/><circle class="cls-1" cx="138.83" cy="45.14" r="6.72"/><circle class="cls-1" cx="167.07" cy="45.14" r="6.72"/><circle class="cls-1" cx="195.3" cy="45.14" r="6.72"/><circle class="cls-1" cx="223.53" cy="45.14" r="6.72"/><circle class="cls-1" cx="12.47" cy="78.86" r="6.72"/><circle class="cls-1" cx="40.7" cy="78.86" r="6.72"/><circle class="cls-1" cx="68.93" cy="78.86" r="6.72"/><circle class="cls-1" cx="97.17" cy="78.86" r="6.72"/><circle class="cls-1" cx="125.4" cy="78.86" r="6.72"/><circle class="cls-1" cx="153.63" cy="78.86" r="6.72"/><circle class="cls-1" cx="181.86" cy="78.86" r="6.72"/><circle class="cls-1" cx="210.09" cy="78.86" r="6.72"/><circle class="cls-1" cx="25.91" cy="111.78" r="6.72"/><circle class="cls-1" cx="54.14" cy="111.78" r="6.72"/><circle class="cls-1" cx="82.37" cy="111.78" r="6.72"/><circle class="cls-1" cx="110.6" cy="111.78" r="6.72"/><circle class="cls-1" cx="138.83" cy="111.78" r="6.72"/><circle class="cls-1" cx="167.07" cy="111.78" r="6.72"/><circle class="cls-1" cx="195.3" cy="111.78" r="6.72"/><circle class="cls-1" cx="223.53" cy="111.78" r="6.72"/><circle class="cls-1" cx="238.86" cy="12.22" r="6.72"/><circle class="cls-1" cx="267.09" cy="12.22" r="6.72"/><circle class="cls-1" cx="252.3" cy="45.14" r="6.72"/><circle class="cls-1" cx="280.53" cy="45.14" r="6.72"/><circle class="cls-1" cx="238.86" cy="78.86" r="6.72"/><circle class="cls-1" cx="267.09" cy="78.86" r="6.72"/><circle class="cls-1" cx="252.3" cy="111.78" r="6.72"/><circle class="cls-1" cx="280.53" cy="111.78" r="6.72"/><circle class="cls-1" cx="12.47" cy="146.22" r="6.72"/><circle class="cls-1" cx="40.7" cy="146.22" r="6.72"/><circle class="cls-1" cx="68.93" cy="146.22" r="6.72"/><circle class="cls-1" cx="97.17" cy="146.22" r="6.72"/><circle class="cls-1" cx="125.4" cy="146.22" r="6.72"/><circle class="cls-1" cx="153.63" cy="146.22" r="6.72"/><circle class="cls-1" cx="181.86" cy="146.22" r="6.72"/><circle class="cls-1" cx="210.09" cy="146.22" r="6.72"/><circle class="cls-1" cx="238.86" cy="146.22" r="6.72"/><circle class="cls-1" cx="267.09" cy="146.22" r="6.72"/></svg>