<svg viewBox="0 0 310 170" fill="#B3B3B3"><circle cx="12.5" cy="12.2" r="6.7" class="cls-1"/><circle cx="40.7" cy="12.2" r="6.7" class="cls-1"/><circle cx="68.9" cy="12.2" r="6.7" class="cls-1"/><circle cx="97.2" cy="12.2" r="6.7" class="cls-1"/><circle cx="125.4" cy="12.2" r="6.7" class="cls-1"/><circle cx="153.6" cy="12.2" r="6.7" class="cls-1"/><circle cx="181.9" cy="12.2" r="6.7" class="cls-1"/><circle cx="210.1" cy="12.2" r="6.7" class="cls-1"/><circle cx="25.9" cy="35.1" r="6.7" class="cls-1"/><circle cx="54.1" cy="35.1" r="6.7" class="cls-1"/><circle cx="82.4" cy="35.1" r="6.7" class="cls-1"/><circle cx="110.6" cy="35.1" r="6.7" class="cls-1"/><circle cx="138.8" cy="35.1" r="6.7" class="cls-1"/><circle cx="167.1" cy="35.1" r="6.7" class="cls-1"/><circle cx="195.3" cy="35.1" r="6.7" class="cls-1"/><circle cx="223.5" cy="35.1" r="6.7" class="cls-1"/><circle cx="12.5" cy="58.9" r="6.7" class="cls-1"/><circle cx="40.7" cy="58.9" r="6.7" class="cls-1"/><circle cx="68.9" cy="58.9" r="6.7" class="cls-1"/><circle cx="97.2" cy="58.9" r="6.7" class="cls-1"/><circle cx="125.4" cy="58.9" r="6.7" class="cls-1"/><circle cx="153.6" cy="58.9" r="6.7" class="cls-1"/><circle cx="181.9" cy="58.9" r="6.7" class="cls-1"/><circle cx="210.1" cy="58.9" r="6.7" class="cls-1"/><circle cx="25.9" cy="81.8" r="6.7" class="cls-1"/><circle cx="54.1" cy="81.8" r="6.7" class="cls-1"/><circle cx="82.4" cy="81.8" r="6.7" class="cls-1"/><circle cx="110.6" cy="81.8" r="6.7" class="cls-1"/><circle cx="138.8" cy="81.8" r="6.7" class="cls-1"/><circle cx="167.1" cy="81.8" r="6.7" class="cls-1"/><circle cx="195.3" cy="81.8" r="6.7" class="cls-1"/><circle cx="223.5" cy="81.8" r="6.7" class="cls-1"/><circle cx="238.9" cy="12.2" r="6.7" class="cls-1"/><circle cx="267.1" cy="12.2" r="6.7" class="cls-1"/><circle cx="252.3" cy="35.1" r="6.7" class="cls-1"/><circle cx="280.5" cy="35.1" r="6.7" class="cls-1"/><circle cx="238.9" cy="58.9" r="6.7" class="cls-1"/><circle cx="267.1" cy="58.9" r="6.7" class="cls-1"/><circle cx="252.3" cy="81.8" r="6.7" class="cls-1"/><circle cx="280.5" cy="81.8" r="6.7" class="cls-1"/><circle cx="12.5" cy="106.2" r="6.7" class="cls-1"/><circle cx="40.7" cy="106.2" r="6.7" class="cls-1"/><circle cx="68.9" cy="106.2" r="6.7" class="cls-1"/><circle cx="97.2" cy="106.2" r="6.7" class="cls-1"/><circle cx="125.4" cy="106.2" r="6.7" class="cls-1"/><circle cx="153.6" cy="106.2" r="6.7" class="cls-1"/><circle cx="181.9" cy="106.2" r="6.7" class="cls-1"/><circle cx="210.1" cy="106.2" r="6.7" class="cls-1"/><circle cx="25.9" cy="129.1" r="6.7" class="cls-1"/><circle cx="54.1" cy="129.1" r="6.7" class="cls-1"/><circle cx="82.4" cy="129.1" r="6.7" class="cls-1"/><circle cx="110.6" cy="129.1" r="6.7" class="cls-1"/><circle cx="138.8" cy="129.1" r="6.7" class="cls-1"/><circle cx="167.1" cy="129.1" r="6.7" class="cls-1"/><circle cx="195.3" cy="129.1" r="6.7" class="cls-1"/><circle cx="223.5" cy="129.1" r="6.7" class="cls-1"/><circle cx="12.5" cy="152.9" r="6.7" class="cls-1"/><circle cx="40.7" cy="152.9" r="6.7" class="cls-1"/><circle cx="68.9" cy="152.9" r="6.7" class="cls-1"/><circle cx="97.2" cy="152.9" r="6.7" class="cls-1"/><circle cx="125.4" cy="152.9" r="6.7" class="cls-1"/><circle cx="153.6" cy="152.9" r="6.7" class="cls-1"/><circle cx="181.9" cy="152.9" r="6.7" class="cls-1"/><circle cx="210.1" cy="152.9" r="6.7" class="cls-1"/><circle cx="238.9" cy="106.2" r="6.7" class="cls-1"/><circle cx="267.1" cy="106.2" r="6.7" class="cls-1"/><circle cx="252.3" cy="129.1" r="6.7" class="cls-1"/><circle cx="280.5" cy="129.1" r="6.7" class="cls-1"/><circle cx="238.9" cy="152.9" r="6.7" class="cls-1"/><circle cx="267.1" cy="152.9" r="6.7" class="cls-1"/></svg>
